<svg xmlns="http://www.w3.org/2000/svg" width="16" height="16" class="icon" viewBox="0 0 1024 1024"><path fill="currentColor" d="M825.875 627.066c20.988 0 41.238-3.058 60.855-7.593-8.543 29.215-20.46 56.847-35.226 82.687-65.813 114.645-189.317 192.164-331.066 192.164-210.833 0-381.797-170.965-381.797-381.797S309.605 130.73 520.438 130.73c15.925 0 31.535 1.266 46.933 3.165-11.707 13.394-21.937 27.843-31.43 42.925 9.493-14.976 19.723-29.53 31.43-42.925 30.586 3.796 60.012 11.18 87.856 21.726-58.536 49.043-96.61 121.711-96.61 204.082 0 147.656 119.707 267.363 267.258 267.363m-31.957 74.778a322 322 0 0 0 32.062 1.582c-10.863 0-21.515-.633-32.062-1.582m-311.66-342.035c0-61.067 16.77-117.809 44.719-167.485-2.848 4.957-6.012 9.703-8.649 14.871C350.633 208.355 215 344.515 215 512.527c0 168.645 136.793 305.438 305.438 305.438 99.14 0 186.89-47.356 242.683-120.55-159.785-29.532-280.863-169.278-280.863-337.606m0 0"/></svg>