<svg xmlns="http://www.w3.org/2000/svg" width="16" height="16" class="icon" viewBox="0 0 1024 1024"><path fill="currentColor" d="M512 320c164.95 0 298.667 133.717 298.667 298.667 0 63.466-19.798 122.282-53.547 170.666h96.213a42.667 42.667 0 1 1 0 85.334H170.667a42.667 42.667 0 1 1 0-85.334h96.192l-4.48-6.634a297.3 297.3 0 0 1-49.046-164.032C213.333 453.717 347.051 320 512 320m0 85.333c-117.824 0-213.333 95.51-213.333 213.334A213.01 213.01 0 0 0 384 789.333h256a213.01 213.01 0 0 0 85.333-170.666c0-117.824-95.509-213.334-213.333-213.334M960 576a42.667 42.667 0 1 1 0 85.333h-85.333a42.667 42.667 0 1 1 0-85.333zm-810.667 0a42.667 42.667 0 1 1 0 85.333H64A42.667 42.667 0 1 1 64 576zm709.611-304.277a42.667 42.667 0 0 1 0 60.33l-60.33 60.331a42.667 42.667 0 1 1-60.331-60.33l60.33-60.331a42.667 42.667 0 0 1 60.331 0m-633.557 0 60.33 60.33a42.667 42.667 0 1 1-60.33 60.331l-60.331-60.33a42.667 42.667 0 0 1 60.33-60.331M512 128a42.667 42.667 0 0 1 42.667 42.667V256a42.667 42.667 0 1 1-85.334 0v-85.333A42.667 42.667 0 0 1 512 128"/></svg>