<svg xmlns="http://www.w3.org/2000/svg" width="16" height="16" class="icon" viewBox="0 0 1024 1024"><path fill="currentColor" d="M512 224c-159.06 0-288 128.94-288 288s128.94 288 288 288 288-128.94 288-288-128.94-288-288-288m0 512c-123.71 0-224-100.29-224-224s100.29-224 224-224 224 100.29 224 224-100.29 224-224 224m0-672a32 32 0 0 0-32 32v64a32 32 0 0 0 64 0V96a32 32 0 0 0-32-32m0 768a32 32 0 0 0-32 32v64a32 32 0 0 0 64 0v-64a32 32 0 0 0-32-32M195.22 195.22a32 32 0 0 0 0 45.25l45.25 45.25a32 32 0 0 0 45.25-45.25l-45.25-45.25a32 32 0 0 0-45.25 0m543.05 543.05a32 32 0 0 0 0 45.25l45.25 45.25a32 32 0 0 0 45.25-45.25l-45.25-45.25a32 32 0 0 0-45.25 0M64 512a32 32 0 0 0 32 32h64a32 32 0 0 0 0-64H96a32 32 0 0 0-32 32m768 0a32 32 0 0 0 32 32h64a32 32 0 0 0 0-64h-64a32 32 0 0 0-32 32M195.22 828.78a32 32 0 0 0 45.25 0l45.25-45.25a32 32 0 0 0-45.25-45.25l-45.25 45.25a32 32 0 0 0 0 45.25m543.05-543.05a32 32 0 0 0 45.25 0l45.25-45.25a32 32 0 0 0-45.25-45.25l-45.25 45.25a32 32 0 0 0 0 45.25"/></svg>